<svg width="100" height="100" viewBox="0 0 100 100" fill="none" xmlns="http://www.w3.org/2000/svg">

<!--    technologies-->

    <g id="css">
        <path d="M94.1749 0L86.142 89.9895L50.0335 100L14.0245 90.0036L6 0H94.1749Z" fill="#264DE4"/>
        <path d="M79.2649 84.2593L86.1296 7.35913H50.0875V92.3484L79.2649 84.2593Z" fill="#2965F1"/>
        <path d="M24.3959 40.7402L25.3853 51.7787H50.0875V40.7402H24.3959Z" fill="#EBEBEB"/>
        <path d="M50.0875 18.3977H50.0493H22.408L23.4114 29.4364H50.0875V18.3977Z" fill="#EBEBEB"/>
        <path d="M50.0875 80.8931V69.4083L50.0391 69.4212L37.7453 66.1016L36.9594 57.2979H30.9857H25.8784L27.425 74.63L50.0366 80.9072L50.0875 80.8931Z"
              fill="#EBEBEB"/>
        <path d="M63.6421 51.7785L62.3608 66.0947L50.0493 69.4177V80.9019L72.679 74.6301L72.845 72.7652L75.439 43.7042L75.7083 40.7401L77.7011 18.3977H50.0493V29.4364H65.6038L64.5994 40.7401H50.0493V51.7785H63.6421Z"
              fill="white"/>
    </g>
    <g id="figma">
        <g clip-path="url(#clip0_867_22590)">
            <path d="M33.3334 100C42.5334 100 50.0001 92.5334 50.0001 83.3334V66.6667H33.3334C24.1334 66.6667 16.6667 74.1334 16.6667 83.3334C16.6667 92.5334 24.1334 100 33.3334 100Z" fill="#0ACF83"/>
            <path d="M16.6667 49.9999C16.6667 40.7999 24.1334 33.3333 33.3334 33.3333H50.0001V66.6665H33.3334C24.1334 66.6665 16.6667 59.1999 16.6667 49.9999Z" fill="#A259FF"/>
            <path d="M16.6667 16.6667C16.6667 7.46666 24.1334 0 33.3334 0H50.0001V33.3333H33.3334C24.1334 33.3333 16.6667 25.8667 16.6667 16.6667Z" fill="#F24E1E"/>
            <path d="M50 0H66.6667C75.8667 0 83.3334 7.46666 83.3334 16.6667C83.3334 25.8667 75.8667 33.3333 66.6667 33.3333H50V0Z" fill="#FF7262"/>
            <path d="M83.3334 49.9999C83.3334 59.1999 75.8667 66.6665 66.6667 66.6665C57.4667 66.6665 50 59.1999 50 49.9999C50 40.7999 57.4667 33.3333 66.6667 33.3333C75.8667 33.3333 83.3334 40.7999 83.3334 49.9999Z" fill="#1ABCFE"/>
        </g>
        <defs>
            <clipPath id="clip0_867_22590">
                <rect width="100" height="100" fill="white"/>
            </clipPath>
        </defs>
    </g>
    <g id="git">
        <g clip-path="url(#clip0_867_19556)">
            <path d="M98.1141 45.5444L54.4531 1.88584C51.9402 -0.628613 47.8621 -0.628613 45.3461 1.88584L36.2797 10.9522L47.7809 22.4534C50.4535 21.5503 53.5184 22.1562 55.6488 24.2866C57.7894 26.4308 58.391 29.5218 57.466 32.203L68.55 43.2874C71.2316 42.3636 74.3258 42.9612 76.4676 45.1065C79.4609 48.0987 79.4609 52.9483 76.4676 55.9425C73.4734 58.937 68.6238 58.937 65.6281 55.9425C63.3766 53.6886 62.8203 50.3819 63.9602 47.6081L53.6234 37.2714L53.6223 64.4733C54.3716 64.8438 55.056 65.3333 55.6488 65.9226C58.6422 68.9147 58.6422 73.7647 55.6488 76.7612C52.6547 79.7542 47.8027 79.7542 44.8129 76.7612C41.8195 73.7647 41.8195 68.9151 44.8129 65.923C45.5302 65.2053 46.3827 64.6369 47.3211 64.2507V36.7952C46.3814 36.4116 45.5284 35.8429 44.8129 35.1229C42.5449 32.8581 41.9996 29.5304 43.1617 26.7456L31.8242 15.4069L1.88672 45.3425C-0.628906 47.8593 -0.628906 51.9378 1.88672 54.4526L45.5484 98.112C48.0621 100.627 52.1395 100.627 54.6562 98.112L98.1137 54.6554C100.629 52.1397 100.629 48.0589 98.1141 45.5444Z" fill="#DE4C36"/>
        </g>
        <defs>
            <clipPath id="clip0_867_19556">
                <rect width="100" height="100" fill="white"/>
            </clipPath>
        </defs>
    </g>
    <g id="github">
        <path d="M50.0002 1C22.3894 1 0 23.3855 0 51.0002C0 73.092 14.3266 91.834 34.1933 98.4456C36.692 98.9083 37.6096 97.3609 37.6096 96.0402C37.6096 94.848 37.563 90.909 37.5418 86.7311C23.6313 89.7557 20.6961 80.8317 20.6961 80.8317C18.4217 75.0523 15.1446 73.5159 15.1446 73.5159C10.6083 70.4124 15.4865 70.476 15.4865 70.476C20.5075 70.8289 23.1513 75.6287 23.1513 75.6287C27.6108 83.2728 34.8482 81.0627 37.7014 79.7854C38.15 76.5534 39.4461 74.348 40.8758 73.0994C29.7703 71.8347 18.0954 67.5474 18.0954 48.3889C18.0954 42.9303 20.0487 38.4697 23.2474 34.9682C22.7282 33.7086 21.0169 28.6233 23.7317 21.7361C23.7317 21.7361 27.9304 20.3923 37.4853 26.8614C41.4734 25.7532 45.7509 25.198 50.0002 25.1791C54.2495 25.198 58.5301 25.7532 62.526 26.8614C72.0696 20.3923 76.2624 21.7361 76.2624 21.7361C78.9839 28.6233 77.2718 33.7086 76.7526 34.9682C79.9584 38.4697 81.8983 42.9299 81.8983 48.3889C81.8983 67.5929 70.2014 71.8218 59.0677 73.0594C60.861 74.6111 62.459 77.6541 62.459 82.3187C62.459 89.0086 62.4009 94.3932 62.4009 96.0402C62.4009 97.3707 63.3009 98.9299 65.8357 98.4389C85.6915 91.8199 100 73.0845 100 51.0002C100 23.3855 77.6137 1 50.0002 1Z" fill="#161614"/>
        <path d="M18.7266 72.2265C18.6168 72.4748 18.2255 72.5493 17.8698 72.3791C17.5071 72.2159 17.3032 71.8771 17.4208 71.6277C17.5286 71.3721 17.92 71.3007 18.282 71.4724C18.6455 71.6352 18.8525 71.9771 18.7266 72.2265ZM21.1862 74.421C20.9477 74.6421 20.4815 74.5394 20.165 74.19C19.838 73.8414 19.7768 73.3755 20.0188 73.1508C20.2646 72.93 20.7168 73.0332 21.0446 73.3822C21.3717 73.7347 21.4352 74.1978 21.1858 74.4214L21.1862 74.421ZM22.8736 77.2287C22.5669 77.4416 22.0657 77.242 21.7563 76.7974C21.4501 76.3531 21.4501 75.8197 21.763 75.606C22.0736 75.3923 22.5669 75.5845 22.8806 76.0256C23.1865 76.4778 23.1865 77.0111 22.8732 77.2291L22.8736 77.2287ZM25.7268 80.4808C25.4527 80.7827 24.8692 80.7019 24.4417 80.2894C24.0049 79.8863 23.8829 79.3141 24.1578 79.0118C24.4351 78.709 25.0221 78.7941 25.4527 79.2032C25.8868 79.6055 26.0193 80.1819 25.7272 80.4808H25.7268ZM29.4145 81.5788C29.2941 81.9701 28.7318 82.1481 28.1655 81.9819C27.6001 81.8105 27.2299 81.3517 27.344 80.956C27.4616 80.5619 28.0263 80.3764 28.5969 80.5545C29.1616 80.7251 29.5326 81.1803 29.4149 81.5788H29.4145ZM33.612 82.0442C33.6261 82.4568 33.1458 82.7987 32.5513 82.8062C31.9533 82.8191 31.4697 82.4854 31.4635 82.0799C31.4635 81.6635 31.9329 81.3246 32.5305 81.3148C33.125 81.3031 33.612 81.6344 33.612 82.0442ZM37.735 81.8862C37.8064 82.2885 37.3931 82.7019 36.8029 82.8117C36.2225 82.9175 35.6853 82.6693 35.6112 82.2705C35.539 81.858 35.9602 81.445 36.5394 81.338C37.1307 81.2352 37.6597 81.4772 37.735 81.8862Z" fill="#161614"/>
    </g>
    <g id="html">
        <path d="M14.0214 90.034L6 0H94.1867L86.1653 89.9854L50.0204 100" fill="#E44D26"/>
        <path d="M50.093 92.344V7.39014H86.1407L79.2617 84.201" fill="#F16529"/>
        <path d="M22.3831 18.4009H50.0933V29.4364H34.4881L35.509 40.7392H50.0933V51.7504H25.3972L22.3831 18.4009ZM25.8833 57.2925H36.9674L37.7452 66.116L50.0933 69.4218V80.9434L27.439 74.6235" fill="#EBEBEB"/>
        <path d="M77.7058 18.4009H50.0442V29.4364H76.6849L77.7058 18.4009ZM75.6883 40.7392H50.0442V51.7747H63.6562L62.368 66.116L50.0442 69.4218V80.8948L72.6499 74.6235" fill="white"/>
    </g>
    <g id="js">
        <g clip-path="url(#clip0_867_18967)">
            <path d="M100 0H0V100H100V0Z" fill="#F7DF1E"/>
            <path d="M67.1745 78.1254C69.1888 81.4143 71.8094 83.8318 76.4444 83.8318C80.338 83.8318 82.8253 81.8857 82.8253 79.1969C82.8253 75.9746 80.2698 74.8334 75.9841 72.9588L73.6348 71.9508C66.8539 69.0619 62.3491 65.4429 62.3491 57.7921C62.3491 50.7445 67.719 45.3794 76.111 45.3794C82.0856 45.3794 86.3809 47.4588 89.4761 52.9032L82.1586 57.6016C80.5475 54.7127 78.8094 53.5746 76.111 53.5746C73.3587 53.5746 71.6142 55.3207 71.6142 57.6016C71.6142 60.4207 73.3602 61.5619 77.392 63.308L79.7412 64.3143C87.7253 67.7381 92.2333 71.2286 92.2333 79.0762C92.2333 87.5365 85.5872 92.1715 76.6618 92.1715C67.9348 92.1715 62.2967 88.0127 59.538 82.5619L67.1745 78.1254ZM33.9793 78.9397C35.4555 81.5588 36.7983 83.773 40.0269 83.773C43.1142 83.773 45.0618 82.5651 45.0618 77.8683V45.9159H54.4586V77.9953C54.4586 87.7254 48.7539 92.154 40.4269 92.154C32.9031 92.154 28.546 88.2603 26.3301 83.5707L33.9793 78.9397Z" fill="black"/>
        </g>
        <defs>
            <clipPath id="clip0_867_18967">
                <rect width="100" height="100" fill="white"/>
            </clipPath>
        </defs>
    </g>
    <g id="react">
        <g clip-path="url(#clip0_867_22637)">
            <path d="M50.3067 58.8163C55.1758 58.8163 59.1229 54.8691 59.1229 50.0001C59.1229 45.131 55.1758 41.1838 50.3067 41.1838C45.4376 41.1838 41.4905 45.131 41.4905 50.0001C41.4905 54.8691 45.4376 58.8163 50.3067 58.8163Z" fill="#61DAFB"/>
            <path d="M50.3066 68.0626C76.4333 68.0626 97.6132 59.9757 97.6132 50C97.6132 40.0244 76.4333 31.9375 50.3066 31.9375C24.1799 31.9375 3 40.0244 3 50C3 59.9757 24.1799 68.0626 50.3066 68.0626Z" stroke="#61DAFB" stroke-width="5"/>
            <path d="M34.664 59.0313C47.7274 81.6577 65.3207 95.9566 73.9599 90.9687C82.5991 85.9809 79.0126 63.5951 65.9492 40.9687C52.8858 18.3423 35.2925 4.04343 26.6533 9.03126C18.0141 14.0191 21.6006 36.4049 34.664 59.0313Z" stroke="#61DAFB" stroke-width="5"/>
            <path d="M34.664 40.9687C21.6007 63.5951 18.0141 85.9809 26.6533 90.9687C35.2925 95.9565 52.8859 81.6576 65.9492 59.0312C79.0126 36.4048 82.5991 14.0191 73.9599 9.03124C65.3208 4.04341 47.7274 18.3423 34.664 40.9687Z" stroke="#61DAFB" stroke-width="5"/>
        </g>
        <defs>
            <clipPath id="clip0_867_22637">
                <rect width="100" height="100" fill="white"/>
            </clipPath>
        </defs>
    </g>
    <g id="redux">
        <g clip-path="url(#clip0_867_14804)">
            <path d="M69.2895 69.3019C72.9798 68.9199 75.7794 65.7387 75.652 61.9207C75.5251 58.1031 72.3434 55.0488 68.5258 55.0488H68.2715C64.3262 55.1762 61.2723 58.4848 61.3997 62.4297C61.527 64.3387 62.2903 65.993 63.4356 67.1383C59.109 75.6648 52.4918 81.9004 42.5661 87.118C35.8215 90.6812 28.8227 91.9539 21.8238 91.0633C16.0973 90.2996 11.6434 87.7547 8.84336 83.5547C4.77148 77.3191 4.38984 70.5742 7.82579 63.8297C10.2438 58.9937 14.0609 55.4305 16.4789 53.6488C15.9699 51.9945 15.2063 49.1949 14.8246 47.159C-3.62735 60.5211 -1.71837 78.5918 3.88086 87.118C8.08008 93.4812 16.6063 97.4262 26.0231 97.4262C28.568 97.4262 31.1129 97.1715 33.6582 96.5355C49.9469 93.3539 62.2907 83.682 69.2895 69.3019ZM91.6864 53.5219C82.0149 42.1957 67.7626 35.9602 51.4739 35.9602H49.4379C48.2926 33.6695 45.8747 32.1422 43.2024 32.1422H42.9477C39.0032 32.2695 35.9493 35.5781 36.0762 39.5234C36.2035 43.341 39.3848 46.3953 43.2024 46.3953H43.4567C46.2563 46.268 48.6743 44.4863 49.6922 42.0684H51.9829C61.6544 42.0684 70.8165 44.868 79.0884 50.3402C85.4509 54.5398 90.0321 60.0121 92.577 66.6293C94.7403 71.9742 94.613 77.1918 92.3224 81.6461C88.7595 88.3906 82.7786 92.0812 74.8887 92.0812C69.7985 92.0812 64.963 90.5539 62.4176 89.4086C61.018 90.6812 58.4727 92.7172 56.6911 93.9902C62.1633 96.5351 67.7626 97.9352 73.1071 97.9352C85.3235 97.9352 94.3587 91.1902 97.7946 84.4457C101.485 77.0645 101.23 64.3387 91.6864 53.5219ZM27.041 71.4648C27.1684 75.2828 30.3496 78.3367 34.1672 78.3367H34.4219C38.3668 78.2098 41.4207 74.9008 41.2934 70.9558C41.1664 67.1379 37.9848 64.084 34.1672 64.084H33.9129C33.6582 64.084 33.2762 64.084 33.0223 64.2109C27.8047 55.5574 25.6414 46.1406 26.4051 35.9598C26.9137 28.3242 29.459 21.7066 33.9129 16.2344C37.6032 11.5258 44.7293 9.23516 49.5653 9.1082C63.054 8.85352 68.7801 25.6516 69.1622 32.3965C70.8165 32.7781 73.6161 33.6691 75.5251 34.3055C73.9977 13.6898 61.2723 3 49.0563 3C37.6032 3 27.041 11.2719 22.8414 23.4887C16.9879 39.7777 20.8055 55.4305 27.9317 67.7746C27.2957 68.6652 26.9137 70.0652 27.041 71.4652V71.4648Z" fill="#764ABC"/>
        </g>
        <defs>
            <clipPath id="clip0_867_14804">
                <rect width="100" height="100" fill="white"/>
            </clipPath>
        </defs>
    </g>
    <g id="tailwind">
        <g clip-path="url(#clip0_867_21424)">
            <path d="M50.0002 20C36.6665 20 28.3334 26.665 24.9996 39.9937C30.0002 33.3287 35.8337 30.8303 42.4999 32.4959C46.3039 33.4463 49.0224 36.206 52.0323 39.2597C56.9341 44.234 62.6075 49.9912 75.0009 49.9912C88.3334 49.9912 96.6677 43.3262 100 29.9962C95.0009 36.6612 89.1674 39.1609 82.4999 37.4953C78.6973 36.5449 75.9787 33.7851 72.9689 30.7315C68.067 25.7571 62.3924 20 50.0002 20ZM24.9996 49.9912C11.6671 49.9912 3.33274 56.6562 0.000244141 69.9862C4.99962 63.3212 10.8331 60.8215 17.5006 62.4884C21.3032 63.44 24.0218 66.1985 27.0316 69.2509C31.9335 74.2252 37.6081 79.9836 50.0002 79.9836C63.334 79.9836 71.6671 73.3187 75.0009 59.9887C70.0002 66.6537 64.1668 69.1534 57.5006 67.4865C53.6966 66.5374 50.9781 63.7763 47.9682 60.724C43.0664 55.7496 37.393 49.9912 24.9996 49.9912Z" fill="#06B6D4"/>
        </g>
        <defs>
            <clipPath id="clip0_867_21424">
                <rect width="100" height="100" fill="white"/>
            </clipPath>
        </defs>
    </g>
    <g id="typescript">
        <g clip-path="url(#clip0_867_15051)">
            <path d="M0 0H100V100H0V0Z" fill="#017ACB"/>
            <path d="M48.0157 37.0312H52.8126V45.3125H39.8438V82.1562L39.5 82.25C39.0313 82.375 32.8594 82.375 31.5313 82.2344L30.4688 82.1406V45.3125H17.5V37.0312L21.6094 36.9844C23.8594 36.9531 29.6406 36.9531 34.4532 36.9844C39.2657 37.0156 45.3594 37.0312 48.0157 37.0312ZM84.6251 78.25C82.7189 80.2656 80.672 81.3906 77.2657 82.3125C75.7813 82.7187 75.5313 82.7344 72.1876 82.7188C68.8438 82.7031 68.5782 82.7031 66.9532 82.2812C62.7501 81.2031 59.3594 79.0937 57.0469 76.1094C56.3907 75.2656 55.3126 73.5156 55.3126 73.2969C55.3126 73.2344 55.4688 73.0937 55.6719 73C55.8751 72.9062 56.2969 72.6406 56.6407 72.4375C56.9844 72.2344 57.6094 71.8594 58.0313 71.6406C58.4532 71.4219 59.6719 70.7031 60.7345 70.0625C61.797 69.4219 62.7657 68.9062 62.8751 68.9062C62.9845 68.9062 63.1876 69.125 63.3438 69.3906C64.2813 70.9687 66.4688 72.9844 68.0157 73.6719C68.9688 74.0781 71.0782 74.5312 72.0938 74.5312C73.0313 74.5312 74.7501 74.125 75.672 73.7031C76.6563 73.25 77.1564 72.7969 77.7501 71.8906C78.1564 71.25 78.2032 71.0781 78.1876 69.8594C78.1876 68.7344 78.1251 68.4219 77.8126 67.9062C76.9376 66.4687 75.7501 65.7187 70.9376 63.5937C65.9688 61.3906 63.7345 60.0781 61.9219 58.3125C60.5782 57 60.3126 56.6406 59.4688 55C58.3751 52.8906 58.2344 52.2031 58.2188 49.0625C58.2032 46.8594 58.2501 46.1406 58.4844 45.3906C58.8126 44.2656 59.8751 42.0937 60.3594 41.5469C61.3594 40.375 61.7188 40.0156 62.422 39.4375C64.547 37.6875 67.8595 36.5312 71.0313 36.4219C71.3907 36.4219 72.5782 36.4844 73.6876 36.5625C76.8751 36.8281 79.047 37.6094 81.1407 39.2812C82.7189 40.5312 85.1095 43.4688 84.8751 43.8594C84.7189 44.0938 78.4845 48.25 78.0782 48.375C77.8282 48.4531 77.6564 48.3594 77.3126 47.9531C75.1876 45.4062 74.3282 44.8594 72.2657 44.7344C70.797 44.6406 70.0157 44.8125 69.0313 45.4687C68.0001 46.1562 67.5001 47.2031 67.5001 48.6562C67.5157 50.7812 68.3282 51.7812 71.3282 53.2656C73.2657 54.2187 74.922 55 75.047 55C75.2345 55 79.2501 57 80.297 57.625C85.172 60.4844 87.1564 63.4219 87.672 68.4844C88.047 72.2969 86.9689 75.7812 84.6251 78.25Z" fill="white"/>
        </g>
        <defs>
            <clipPath id="clip0_867_15051">
                <rect width="100" height="100" fill="white"/>
            </clipPath>
        </defs>
    </g>
    <g id="vite">
        <path d="M98.848 14.8011L52.7313 98.6948C51.779 100.427 49.3328 100.437 48.3664 98.7135L1.33543 14.8089C0.28237 12.9308 1.86119 10.6555 3.9535 11.0363L50.1197 19.4308C50.4142 19.4843 50.7158 19.4838 51.0102 19.4292L96.2107 11.048C98.2961 10.6614 99.8822 12.9191 98.848 14.8011Z" fill="url(#paint0_linear_867_20157)"/>
        <path d="M72.111 0.0246207L37.9836 6.8278C37.7109 6.88215 37.4637 7.02714 37.2809 7.23999C37.098 7.45285 36.9899 7.72148 36.9735 8.00367L34.8743 44.074C34.8627 44.2718 34.8967 44.4697 34.9734 44.6518C35.0502 44.834 35.1676 44.9954 35.3164 45.1233C35.4651 45.2513 35.6412 45.3421 35.8305 45.3888C36.0199 45.4354 36.2173 45.4364 36.4071 45.3919L45.9088 43.1611C46.7977 42.9524 47.6011 43.749 47.4182 44.6584L44.5953 58.7216C44.4055 59.6681 45.2787 60.4772 46.1872 60.1964L52.0561 58.3826C52.9657 58.1017 53.8401 58.9132 53.6476 59.8604L49.1615 81.9503C48.8808 83.3321 50.6874 84.0855 51.4406 82.901L51.9441 82.1098L79.7532 25.6495C80.2191 24.7042 79.4157 23.6262 78.3956 23.8268L68.6147 25.747C67.6959 25.9273 66.914 25.0565 67.1732 24.142L73.5568 1.62925C73.8164 0.712429 73.0314 -0.158743 72.1114 0.0246207H72.111Z" fill="url(#paint1_linear_867_20157)"/>
        <defs>
            <linearGradient id="paint0_linear_867_20157" x1="0.187129" y1="17.8049" x2="51.0375" y2="85.6877" gradientUnits="userSpaceOnUse">
                <stop stop-color="#41D1FF"/>
                <stop offset="1" stop-color="#BD34FE"/>
            </linearGradient>
            <linearGradient id="paint1_linear_867_20157" x1="54.3985" y1="1.87182" x2="64.9804" y2="73.2241" gradientUnits="userSpaceOnUse">
                <stop stop-color="#FFEA83"/>
                <stop offset="0.083" stop-color="#FFDD35"/>
                <stop offset="1" stop-color="#FFA800"/>
            </linearGradient>
        </defs>
    </g>
    <g id="webstorm">
        <g clip-path="url(#clip0_1085_4816)">
            <path d="M9.09326 75.0833L9.09561 93.638C9.09561 94.4736 9.2602 95.301 9.58 96.073C9.89979 96.845 10.3685 97.5464 10.9594 98.1372C11.5503 98.7281 12.2518 99.1967 13.0238 99.5164C13.7958 99.8361 14.6233 100.001 15.4589 100H33.4378C34.3558 100 35.2629 99.8017 36.0969 99.4182C36.9309 99.0347 37.6722 98.4754 38.2698 97.7786L89.3769 38.1536C90.3647 37.0002 90.9078 35.5316 90.9081 34.013V15.4583C90.9082 14.6227 90.7437 13.7952 90.424 13.0231C90.1043 12.2511 89.6357 11.5495 89.0449 10.9586C88.4541 10.3676 87.7527 9.89879 86.9807 9.57891C86.2087 9.25903 85.3812 9.09434 84.5456 9.09424H66.5628C65.6448 9.09437 64.7377 9.293 63.9037 9.67651C63.0697 10.06 62.3284 10.6193 61.7308 11.3161L10.6253 70.9411C9.63706 72.095 9.09396 73.5641 9.09404 75.0833H9.09326Z" fill="#F0EB18"/>
            <path d="M9.09326 77.311V93.6357C9.09326 97.1479 11.9429 99.9975 15.455 99.9975H35.9117C36.2156 99.9975 36.516 99.9761 36.8129 99.9334L94.5353 91.6909C96.0529 91.4746 97.4413 90.7177 98.4452 89.5593C99.4491 88.4009 100.001 86.919 99.9995 85.3861V60.9008C99.9995 57.3851 97.1498 54.5355 93.6341 54.5391L64.6678 54.5462C63.9839 54.5462 63.3036 54.653 62.6553 54.8703L13.4425 71.277C12.1767 71.7013 11.0761 72.5123 10.2958 73.5955C9.51548 74.6788 9.09487 75.976 9.09326 77.311Z" fill="url(#paint0_linear_1085_4816)"/>
            <path d="M0.00293069 6.36371V59.4378C0.00293069 61.981 1.52035 64.2821 3.85703 65.2866L62.4344 90.3917C63.2251 90.7301 64.08 90.9046 64.942 90.9046H93.6341C97.1498 90.9046 99.9994 88.055 99.9994 84.5428V56.4742C99.9994 55.2132 99.6254 53.9843 98.9272 52.9406L65.487 2.83376C64.9051 1.96345 64.1177 1.24984 63.1946 0.755953C62.2714 0.26207 61.2408 0.00311078 60.1939 0.00195412H6.36469C5.52912 0.00148589 4.70165 0.165724 3.9296 0.485266C3.15754 0.804809 2.45604 1.27339 1.8652 1.86423C1.27437 2.45507 0.80578 3.15656 0.486237 3.92862C0.166695 4.70067 0.00246245 5.52814 0.00293069 6.36371Z" fill="url(#paint1_linear_1085_4816)"/>
            <path d="M81.2486 18.75H18.751V81.2477H81.2486V18.75Z" fill="black"/>
            <path d="M33.1842 43.6883L29.3999 26.5742H24.6624L30.3217 50.018H35.5131L39.5147 32.9875L43.467 50.018H48.6741L54.3678 26.5742H49.7295L46.0616 43.6883L41.842 26.5742H37.2202L33.1842 43.6883ZM59.7217 49.4992C61.0389 50.1133 62.546 50.4206 64.2428 50.4211C65.9407 50.4211 67.4483 50.1081 68.7655 49.482C70.0821 48.857 71.1035 47.9977 71.8295 46.9039C72.5665 45.7977 72.935 44.5526 72.935 43.1687C72.935 42.0401 72.6837 41.0018 72.1811 40.0539C71.6802 39.0934 70.957 38.2665 70.0717 37.6422C69.1785 36.9833 68.1569 36.537 67.0069 36.3031L63.021 35.432C62.2954 35.2549 61.7204 34.9536 61.2959 34.5281C60.8829 34.1026 60.6764 33.5667 60.6764 32.9203C60.6764 32.3516 60.8272 31.8549 61.1288 31.4305C61.4303 30.9945 61.8488 30.6596 62.3842 30.4258C62.9311 30.1805 63.5618 30.0576 64.2764 30.057C64.99 30.057 65.6207 30.1852 66.1686 30.4414C66.7264 30.6867 67.1561 31.0383 67.4577 31.4961C67.7587 31.9424 67.9092 32.4508 67.9092 33.0211H72.4811C72.4697 31.682 72.1124 30.4987 71.4092 29.4711C70.7165 28.4315 69.7452 27.6221 68.4952 27.043C67.2452 26.4625 65.7999 26.1719 64.2249 26.1719C62.6509 26.1719 61.2444 26.4732 60.0053 27.0758C58.7668 27.6674 57.8012 28.499 57.1084 29.5703C56.4168 30.6318 56.071 31.8318 56.071 33.1703C56.071 34.276 56.2996 35.2698 56.7569 36.1516C57.2157 37.0344 57.8753 37.7973 58.6827 38.3789C59.5092 38.9711 60.4806 39.3898 61.5967 39.6352L65.7334 40.5562C66.5262 40.7469 67.1457 41.0875 67.592 41.5781C68.0493 42.0698 68.278 42.6896 68.278 43.4375C68.2859 44.013 68.1099 44.576 67.7756 45.0445C67.4522 45.5133 66.9892 45.8818 66.3866 46.15C65.7944 46.4078 65.1358 46.5344 64.3092 46.5344C63.4832 46.5344 62.7522 46.3893 62.1163 46.0992C61.4803 45.8086 60.9834 45.4068 60.6256 44.8937C60.2689 44.3802 60.0905 43.7831 60.0905 43.1023H55.5022C55.5241 44.5424 55.9035 45.8151 56.6405 46.9203C57.3884 48.0255 58.4155 48.8852 59.7217 49.4992ZM26.5522 68.7477H51.5522V73.4352H26.5522V68.7477Z" fill="white"/>
        </g>
        <defs>
            <linearGradient id="paint0_linear_1085_4816" x1="11.9104" y1="101.117" x2="95.6995" y2="62.2702" gradientUnits="userSpaceOnUse">
                <stop offset="0.22" stop-color="#F0EB18"/>
                <stop offset="0.59" stop-color="#00C4F4"/>
            </linearGradient>
            <linearGradient id="paint1_linear_1085_4816" x1="93.7792" y1="93.3981" x2="2.05442" y2="1.6749" gradientUnits="userSpaceOnUse">
                <stop offset="0.19" stop-color="#00C4F4"/>
                <stop offset="0.83" stop-color="#007DFE"/>
            </linearGradient>
            <clipPath id="clip0_1085_4816">
                <rect width="100" height="100" fill="white"/>
            </clipPath>
        </defs>
    </g>
    <g id="pnpm">
        <g clip-path="url(#clip0_1085_3490)">
            <path d="M0 0.00415039V31.251H31.2469V0.00415039H0ZM34.3719 0.00415039V31.251H65.6219V0.00415039H34.3719ZM68.7531 0.00415039V31.251H100V0.00415039H68.7531ZM68.7531 34.376V65.6229H100V34.376H68.7531Z" fill="#F8AB00"/>
            <path d="M34.3719 34.375V65.6219H65.6219V34.375H34.3719ZM0 68.7469V99.9969H31.2469V68.7469H0ZM34.3719 68.7469V99.9969H65.6219V68.7469H34.3719ZM68.7531 68.7469V99.9969H100V68.7469H68.7531Z" fill="#4C4C4C"/>
        </g>
        <defs>
            <clipPath id="clip0_1085_3490">
                <rect width="100" height="100" fill="white"/>
            </clipPath>
        </defs>
    </g>

<!--    socials-->
    <g id="facebook">
        <g clip-path="url(#clip0_1210_3288)">
            <path d="M32.4752 16.7127C32.4752 7.74492 25.2054 0.475098 16.2376 0.475098C7.26983 0.475098 0 7.74492 0 16.7127C0 24.8173 5.93783 31.5349 13.7005 32.7531V21.4064H9.57766V16.7127H13.7005V13.1354C13.7005 9.06582 16.1247 6.81792 19.8337 6.81792C21.6097 6.81792 23.4684 7.13506 23.4684 7.13506V11.131H21.421C19.404 11.131 18.7748 12.3828 18.7748 13.6682V16.7127H23.2782L22.5582 21.4064H18.7748V32.7531C26.5374 31.5349 32.4752 24.8173 32.4752 16.7127Z" fill="white"/>
        </g>
        <defs>
            <clipPath id="clip0_1210_3288">
                <rect width="32.4752" height="32.4752" fill="white"/>
            </clipPath>
        </defs>
    </g>
    <g id="twitter">
        <g clip-path="url(#clip0_1210_3287)">
            <path d="M10.2164 29.4304C22.4682 29.4304 29.1713 19.2775 29.1713 10.4756C29.1713 10.1901 29.1649 9.89836 29.1522 9.61293C30.4562 8.66993 31.5815 7.5019 32.4752 6.16371C31.2608 6.70402 29.9715 7.05689 28.6512 7.21027C30.0413 6.37697 31.0822 5.0679 31.5809 3.52573C30.2731 4.30079 28.8429 4.84753 27.3515 5.14251C26.3467 4.07482 25.0181 3.36788 23.5712 3.131C22.1243 2.89411 20.6396 3.14047 19.3468 3.83198C18.0539 4.5235 17.0249 5.62165 16.4187 6.95666C15.8126 8.29167 15.6631 9.78919 15.9934 11.2177C13.3453 11.0848 10.7546 10.3969 8.38941 9.19852C6.02419 8.00017 3.93721 6.31815 2.26375 4.26149C1.41321 5.72792 1.15295 7.46319 1.53585 9.11461C1.91875 10.766 2.91609 12.2097 4.32517 13.1522C3.26732 13.1186 2.23264 12.8338 1.30662 12.3213V12.4038C1.30567 13.9427 1.83769 15.4344 2.81223 16.6254C3.78678 17.8164 5.1437 18.6332 6.65235 18.9369C5.67242 19.205 4.64394 19.2441 3.64649 19.0511C4.0722 20.3745 4.90048 21.5321 6.01573 22.3621C7.13098 23.1922 8.47756 23.6534 9.86753 23.6813C7.50777 25.5349 4.59278 26.5403 1.59205 26.5356C1.05989 26.5348 0.528263 26.5022 0 26.4379C3.04842 28.3936 6.59455 29.4323 10.2164 29.4304Z" fill="white"/>
        </g>
        <defs>
            <clipPath id="clip0_1210_3287">
                <rect width="32.4752" height="32.4752" fill="white"/>
            </clipPath>
        </defs>
    </g>
    <g id="instagram">
        <g clip-path="url(#clip0_1210_3286)">
            <path d="M16.2376 2.92404C20.5761 2.92404 21.0899 2.94307 22.7961 3.01918C24.3818 3.08895 25.2381 3.35535 25.8089 3.57735C26.5637 3.86912 27.1092 4.22432 27.6737 4.78883C28.2446 5.35968 28.5934 5.89882 28.8852 6.65362C29.1072 7.22447 29.3736 8.0871 29.4434 9.66646C29.5195 11.379 29.5385 11.8928 29.5385 16.2249C29.5385 20.5634 29.5195 21.0772 29.4434 22.7834C29.3736 24.3691 29.1072 25.2254 28.8852 25.7963C28.5934 26.5511 28.2382 27.0965 27.6737 27.661C27.1029 28.2319 26.5637 28.5808 25.8089 28.8725C25.2381 29.0945 24.3755 29.3609 22.7961 29.4307C21.0835 29.5068 20.5698 29.5258 16.2376 29.5258C11.8991 29.5258 11.3854 29.5068 9.67915 29.4307C8.09344 29.3609 7.23716 29.0945 6.66631 28.8725C5.91151 28.5808 5.36603 28.2256 4.80152 27.661C4.23066 27.0902 3.88181 26.5511 3.59004 25.7963C3.36804 25.2254 3.10164 24.3628 3.03187 22.7834C2.95575 21.0709 2.93673 20.5571 2.93673 16.2249C2.93673 11.8864 2.95575 11.3727 3.03187 9.66646C3.10164 8.08075 3.36804 7.22447 3.59004 6.65362C3.88181 5.89882 4.237 5.35334 4.80152 4.78883C5.37237 4.21798 5.91151 3.86912 6.66631 3.57735C7.23716 3.35535 8.09978 3.08895 9.67915 3.01918C11.3854 2.94307 11.8991 2.92404 16.2376 2.92404ZM16.2376 0C11.8294 0 11.2775 0.0190285 9.54595 0.0951423C7.8207 0.171256 6.63459 0.45034 5.60705 0.849938C4.53512 1.26856 3.62809 1.82039 2.72741 2.72741C1.82039 3.62809 1.26856 4.53512 0.849938 5.60071C0.45034 6.63459 0.171256 7.81436 0.0951423 9.5396C0.0190285 11.2775 0 11.8294 0 16.2376C0 20.6459 0.0190285 21.1977 0.0951423 22.9293C0.171256 24.6545 0.45034 25.8407 0.849938 26.8682C1.26856 27.9401 1.82039 28.8472 2.72741 29.7478C3.62809 30.6485 4.53512 31.2067 5.60071 31.619C6.63459 32.0186 7.81436 32.2976 9.5396 32.3738C11.2712 32.4499 11.823 32.4689 16.2313 32.4689C20.6395 32.4689 21.1914 32.4499 22.923 32.3738C24.6482 32.2976 25.8343 32.0186 26.8619 31.619C27.9274 31.2067 28.8345 30.6485 29.7351 29.7478C30.6358 28.8472 31.194 27.9401 31.6063 26.8745C32.0059 25.8407 32.285 24.6609 32.3611 22.9356C32.4372 21.2041 32.4562 20.6522 32.4562 16.244C32.4562 11.8357 32.4372 11.2839 32.3611 9.55229C32.285 7.82704 32.0059 6.64093 31.6063 5.6134C31.2067 4.53512 30.6549 3.62809 29.7478 2.72741C28.8472 1.82673 27.9401 1.26856 26.8745 0.856281C25.8407 0.456683 24.6609 0.177599 22.9356 0.101485C21.1977 0.0190285 20.6459 0 16.2376 0Z" fill="white"/>
            <path d="M16.2378 7.89685C11.6329 7.89685 7.89697 11.6328 7.89697 16.2377C7.89697 20.8426 11.6329 24.5785 16.2378 24.5785C20.8427 24.5785 24.5786 20.8426 24.5786 16.2377C24.5786 11.6328 20.8427 7.89685 16.2378 7.89685ZM16.2378 21.6481C13.2503 21.6481 10.8274 19.2251 10.8274 16.2377C10.8274 13.2502 13.2503 10.8272 16.2378 10.8272C19.2253 10.8272 21.6482 13.2502 21.6482 16.2377C21.6482 19.2251 19.2253 21.6481 16.2378 21.6481Z" fill="white"/>
            <path d="M26.8554 7.56688C26.8554 8.64516 25.9801 9.51413 24.9082 9.51413C23.8299 9.51413 22.9609 8.63882 22.9609 7.56688C22.9609 6.4886 23.8362 5.61963 24.9082 5.61963C25.9801 5.61963 26.8554 6.49494 26.8554 7.56688Z" fill="white"/>
        </g>
        <defs>
            <clipPath id="clip0_1210_3286">
                <rect width="32.4752" height="32.4752" fill="white"/>
            </clipPath>
        </defs>
    </g>
    <g id="linkedin">
        <g clip-path="url(#clip0_1210_3285)">
            <path d="M30.0713 0H2.39759C1.07194 0 0 1.04657 0 2.3405V30.1284C0 31.4223 1.07194 32.4752 2.39759 32.4752H30.0713C31.397 32.4752 32.4752 31.4223 32.4752 30.1347V2.3405C32.4752 1.04657 31.397 0 30.0713 0ZM9.63475 27.6737H4.8142V12.1719H9.63475V27.6737ZM7.22447 10.0597C5.67683 10.0597 4.42729 8.81018 4.42729 7.26887C4.42729 5.72757 5.67683 4.47803 7.22447 4.47803C8.76578 4.47803 10.0153 5.72757 10.0153 7.26887C10.0153 8.80384 8.76578 10.0597 7.22447 10.0597ZM27.6737 27.6737H22.8595V20.1385C22.8595 18.3434 22.8278 16.0283 20.3541 16.0283C17.8487 16.0283 17.4681 17.9882 17.4681 20.0116V27.6737H12.6603V12.1719H17.2778V14.2904H17.3413C17.9819 13.0726 19.5549 11.785 21.8954 11.785C26.7731 11.785 27.6737 14.9944 27.6737 19.168V27.6737Z" fill="white"/>
        </g>
        <defs>
            <clipPath id="clip0_1210_3285">
                <rect width="32.4752" height="32.4752" fill="white"/>
            </clipPath>
        </defs>
    </g>

<!--    logo-->
    <g id="logo">
        <g clip-path="url(#clip0_1210_2793)">
            <path d="M48.3192 82H23.6794C22.6726 81.3978 22.3455 80.7871 22.5743 79.9479C22.7859 79.1791 23.4272 78.8011 24.5366 78.799C25.5925 78.799 26.6485 78.799 27.7387 78.799C28.288 75.8094 28.8224 72.9138 29.376 69.8986C28.94 69.8986 28.6279 69.8986 28.3158 69.8986C21.9993 69.8986 15.6827 69.9029 9.36618 69.8922C8.6223 69.8922 7.86346 69.873 7.14096 69.7235C2.83161 68.8416 0.0100065 65.3267 0.00573135 60.8444C-0.00495654 49.7467 -0.000681385 38.6489 0.00359377 27.5511C0.00359377 22.0247 3.76359 18.2664 9.28709 18.2578C10.0246 18.2578 10.7599 18.2578 11.5508 18.2578C11.5508 17.8371 11.5508 17.5211 11.5508 17.2051C11.5508 13.1499 11.5401 9.09474 11.5551 5.03958C11.5636 2.60307 12.891 0.834948 15.1633 0.158021C15.2851 0.121719 15.3984 0.0533854 15.516 0C29.1708 0 42.8235 0 56.4784 0C59.6805 1.3026 60.4457 2.46 60.4457 6.00052C60.4457 9.78875 60.4457 13.577 60.4457 17.3652C60.4457 17.6449 60.4457 17.9268 60.4457 18.2578C61.3328 18.2578 62.1002 18.2557 62.8697 18.2578C68.1923 18.2813 71.9865 22.0674 71.9908 27.391C71.9993 38.5144 71.9972 49.6399 71.9844 60.7633C71.9844 61.5299 71.9202 62.3157 71.7449 63.061C70.7702 67.2251 67.3223 69.8794 62.8719 69.8901C56.4762 69.9071 50.0785 69.8943 43.6828 69.8943C43.3708 69.8943 43.0587 69.8943 42.6205 69.8943C43.1805 72.9309 43.7192 75.8479 44.2621 78.7947C45.5169 78.7947 46.6883 78.7712 47.8575 78.8011C48.9007 78.8268 49.5462 79.5848 49.4607 80.5778C49.3987 81.3188 48.8836 81.6733 48.3171 81.9936L48.3192 82ZM14.7999 11.5099V58.3011H57.1859V11.5099H14.7999ZM68.7267 61.6559H3.21423C3.3147 62.0872 3.37028 62.4268 3.47288 62.7556C4.23813 65.2199 6.33937 66.6912 9.13746 66.6933C27.0504 66.6976 44.9632 66.6955 62.8761 66.6933C63.1155 66.6933 63.355 66.6848 63.5944 66.6656C66.3219 66.4648 68.3975 64.464 68.7267 61.6559ZM11.4888 58.3246V29.8489H3.2463V58.3246H11.4888ZM68.7416 58.3182V29.8424H60.4906V58.3182H68.7416ZM14.7743 8.17865H57.1859C57.2158 8.04839 57.2372 7.995 57.2372 7.94375C57.2415 7.08958 57.2479 6.23755 57.2458 5.38339C57.2436 3.71562 56.7221 3.20312 55.0312 3.20312C42.3469 3.20312 29.6625 3.20312 16.9781 3.20312C16.7643 3.20312 16.5506 3.19458 16.339 3.20953C15.4861 3.27146 14.8427 3.80104 14.7913 4.65307C14.7229 5.81474 14.7743 6.98495 14.7743 8.17865ZM40.998 78.7627C40.4722 75.9055 39.9677 73.1295 39.4312 70.3598C39.397 70.1805 39.1063 69.9221 38.9331 69.9199C36.8576 69.8901 34.782 69.9007 32.6401 69.9007C32.0908 72.8711 31.55 75.7923 30.9985 78.7648H41.0002L40.998 78.7627ZM11.4909 26.5603V21.5165C6.56809 21.0552 3.29546 23.0817 3.31684 26.5603H11.4909ZM60.4821 26.5539H68.7074C68.5835 24.2348 66.8563 22.1037 64.552 21.6638C63.2395 21.414 61.8693 21.4716 60.4842 21.3883V26.5539H60.4821Z" fill="#FD6F00"/>
            <path d="M16.7693 38.5016C16.7693 34.314 16.7672 30.1265 16.7693 25.9389C16.7715 23.2632 18.2549 21.7748 20.9141 21.7706C23.2056 21.7663 25.4971 21.762 27.7885 21.7706C30.1484 21.7812 31.7345 23.2867 31.7409 25.6528C31.7666 34.2414 31.7666 42.83 31.7409 51.4187C31.7345 53.7869 30.1655 55.2881 27.7949 55.303C25.4244 55.318 23.0517 55.3222 20.6811 55.303C18.3169 55.2838 16.78 53.7484 16.7736 51.3845C16.7586 47.0902 16.7693 42.7959 16.7693 38.5016ZM28.5559 38.6019C28.5559 34.4165 28.5495 30.229 28.5623 26.0435C28.5645 25.3517 28.4319 24.9438 27.5962 24.9587C25.3602 24.9993 23.1201 24.9908 20.8842 24.963C20.1788 24.9545 19.9586 25.2385 19.9607 25.9154C19.9736 34.3418 19.9757 42.7681 19.9607 51.1923C19.9607 51.9034 20.245 52.1212 20.9141 52.1148C23.0709 52.0914 25.2299 52.1084 27.3867 52.1063C28.4875 52.1063 28.5538 52.038 28.5559 50.9233C28.5581 46.8169 28.5559 42.7105 28.5559 38.6041V38.6019Z" fill="black"/>
            <path d="M44.7889 21.7706C46.9201 21.7706 49.0534 21.762 51.1846 21.7727C53.4932 21.7855 55.0621 23.3017 55.0921 25.6143C55.1284 28.3071 55.1263 31.002 55.0921 33.6969C55.0643 35.9775 53.5616 37.5257 51.2722 37.5492C46.9287 37.5962 42.5851 37.5983 38.2415 37.5492C35.8923 37.5236 34.4067 35.9113 34.4003 33.5453C34.3939 30.9571 34.3939 28.3712 34.4003 25.783C34.4067 23.3401 35.9565 21.7813 38.3912 21.7706C40.5223 21.762 42.6556 21.7706 44.7868 21.7706H44.7889ZM37.6003 29.3406C38.3035 28.7662 38.8593 28.2815 39.4471 27.8373C40.8857 26.7461 42.6856 26.7632 44.1006 27.8757C44.603 28.2708 45.1203 28.6594 45.5627 29.1164C46.142 29.7143 46.6144 29.6396 47.183 29.0993C48.4314 27.9078 49.8742 27.6878 51.4603 28.3562C51.5758 28.4053 51.6997 28.4309 51.9007 28.4929C51.9007 27.5042 51.9049 26.5731 51.9007 25.6442C51.8964 25.1296 51.595 24.9673 51.1183 24.9694C46.8838 24.9758 42.6492 24.9758 38.4147 24.9694C37.8375 24.9694 37.5939 25.2193 37.6024 25.7894C37.6174 26.9084 37.6067 28.0274 37.6067 29.3406H37.6003ZM44.7184 34.3631C46.794 34.3631 48.8717 34.3824 50.9473 34.3439C51.2551 34.3375 51.8023 34.0855 51.8173 33.9104C51.8686 33.304 52.2341 32.5907 51.5052 32.0953C50.4378 31.3707 49.5714 31.2782 48.9059 31.8177C47.2728 33.1481 45.4345 33.1481 43.8121 31.8156C43.3589 31.444 42.8951 31.0831 42.4782 30.6731C41.9866 30.1905 41.5719 30.1692 41.0418 30.6454C40.1119 31.4803 39.1137 32.2405 38.1774 33.0712C37.9337 33.2869 37.8119 33.6435 37.6345 33.9339C37.9722 34.077 38.3078 34.3396 38.6498 34.346C40.672 34.3845 42.6963 34.3653 44.7184 34.3653V34.3631Z" fill="black"/>
            <path d="M44.7463 55.3073C42.6408 55.3073 40.5353 55.3158 38.4319 55.3052C35.9331 55.2923 34.4069 53.7527 34.4004 51.2543C34.3962 48.6683 34.3919 46.0802 34.4004 43.4942C34.409 41.1409 35.9459 39.5522 38.2823 39.5415C42.5981 39.518 46.916 39.518 51.2317 39.5415C53.5104 39.5543 55.0559 41.0747 55.0879 43.349C55.1264 46.0695 55.1264 48.79 55.0879 51.5105C55.0537 53.7826 53.5018 55.2838 51.2189 55.3052C49.0599 55.3265 46.9031 55.3094 44.7442 55.3116L44.7463 55.3073ZM49.7568 52.1063C50.1886 52.1063 50.5071 52.1063 50.8256 52.1063C51.8217 52.0978 51.9008 52.023 51.9008 50.9938C51.9051 48.5658 51.8858 46.1357 51.9115 43.7077C51.92 42.9881 51.6592 42.719 50.9282 42.7233C46.8219 42.7468 42.7156 42.7468 38.6115 42.7233C37.8505 42.719 37.5726 42.9838 37.5854 43.7504C37.6196 45.9648 37.5983 48.1793 37.5983 50.3958C37.5983 52.2067 37.6218 52.228 39.4344 52.0956C39.5093 52.0892 39.5819 52.0529 39.7358 52.0059C39.7978 50.319 39.5093 48.5359 40.8581 47.1158C42.224 45.6766 43.9618 45.7748 45.6997 45.8196C46.7214 45.8453 47.6149 46.2061 48.393 46.8809C49.9962 48.2754 49.7589 50.1759 49.7568 52.1063ZM46.5526 52.0764C46.5526 51.3183 46.5739 50.6307 46.5462 49.9453C46.5205 49.3388 46.1357 48.963 45.5607 49.0377C44.6907 49.153 43.483 48.4547 43.0491 49.7189C42.8097 50.4172 43.0063 51.2671 43.0063 52.0764H46.5547H46.5526Z" fill="black"/>
            <path d="M39.1198 18.828C34.4556 18.828 29.7914 18.8322 25.1272 18.8258C23.9024 18.8258 23.2162 18.2664 23.1799 17.2926C23.15 16.4577 23.6865 15.7914 24.5137 15.6718C24.828 15.627 25.1507 15.6291 25.4714 15.6291C34.5882 15.6291 43.7028 15.6291 52.8195 15.6291C53.138 15.6291 53.463 15.6291 53.775 15.6761C54.5382 15.7935 55.0576 16.3957 55.0854 17.1581C55.1153 17.9653 54.6194 18.6208 53.8285 18.766C53.4907 18.828 53.1402 18.8258 52.7939 18.8258C48.2366 18.8301 43.6771 18.828 39.1198 18.8258V18.828Z" fill="#FD6F00"/>
            <path d="M16.7783 17.2243C16.7783 16.3359 17.4538 15.6526 18.3388 15.6441C19.2152 15.6355 19.9334 16.321 19.959 17.1837C19.9847 18.0678 19.2344 18.8216 18.3388 18.8109C17.4645 18.8002 16.7783 18.1041 16.7783 17.2221V17.2243Z" fill="#FD6F00"/>
            <path d="M53.0565 4.15125C53.4284 4.15125 53.8046 4.12349 54.1744 4.15765C54.9675 4.22812 55.5553 4.84099 55.6173 5.61828C55.675 6.35286 55.2154 7.12802 54.463 7.21984C53.4968 7.33515 52.4964 7.34156 51.5302 7.22625C50.7329 7.13015 50.3054 6.37208 50.3781 5.55849C50.4465 4.7812 51.0322 4.21104 51.8573 4.15338C52.2549 4.12562 52.6567 4.14911 53.0565 4.14911V4.15338V4.15125Z" fill="#FD6F00"/>
            <path d="M24.2097 35.0699C23.5984 35.0699 22.987 35.0956 22.3778 35.0635C21.4779 35.0144 20.8131 34.314 20.8174 33.4662C20.8217 32.6185 21.4865 31.9095 22.3907 31.8839C23.6369 31.8497 24.8874 31.8476 26.1336 31.8839C27.0506 31.9117 27.6854 32.6057 27.6812 33.4769C27.6769 34.346 27.0378 35.0166 26.1207 35.0614C25.4859 35.0934 24.8467 35.0678 24.2097 35.0678V35.0699Z" fill="black"/>
            <path d="M24.3148 42.6037C24.8727 42.6037 25.4306 42.5909 25.9885 42.6058C27.0146 42.6357 27.6922 43.2913 27.6815 44.2223C27.6708 45.1192 27.006 45.7769 26.027 45.7961C24.8321 45.8196 23.6372 45.8218 22.4423 45.7961C21.4932 45.7727 20.8028 45.0594 20.8156 44.1839C20.8284 43.3063 21.521 42.6507 22.4829 42.6058C22.5364 42.6037 22.5898 42.6058 22.6432 42.6058C23.2011 42.6058 23.759 42.6058 24.317 42.6058L24.3148 42.6037Z" fill="black"/>
            <path d="M24.306 26.5261C24.9195 26.5261 25.533 26.4984 26.1444 26.5325C27.0464 26.5838 27.6578 27.2159 27.6813 28.0594C27.7048 28.9071 27.1362 29.6204 26.2384 29.6673C24.9366 29.7335 23.6263 29.7335 22.3245 29.6759C21.3925 29.6353 20.7748 28.89 20.8175 28.038C20.8581 27.2031 21.4844 26.5987 22.3865 26.5261C22.4399 26.5219 22.4934 26.5197 22.5468 26.5197C23.1325 26.5197 23.7203 26.5197 24.306 26.5197C24.306 26.5219 24.306 26.524 24.306 26.5261Z" fill="black"/>
            <path d="M24.2102 40.4277C23.5967 40.4277 22.9811 40.4661 22.3718 40.4192C21.427 40.3444 20.8007 39.6718 20.8157 38.8155C20.8285 37.9549 21.4783 37.2886 22.4189 37.263C23.6437 37.2289 24.8728 37.2289 26.0976 37.263C27.0425 37.2886 27.6752 37.9506 27.6837 38.824C27.6923 39.6718 27.113 40.2974 26.2088 40.4192C26.1297 40.4298 26.0506 40.4427 25.9694 40.4427C25.3837 40.4427 24.7959 40.4427 24.2102 40.4427C24.2102 40.4384 24.2102 40.432 24.2102 40.4277Z" fill="black"/>
            <path d="M24.2848 47.985C24.8983 47.985 25.5117 47.9593 26.1231 47.9914C27.0294 48.0405 27.6472 48.6576 27.6793 49.499C27.7156 50.3766 27.1235 51.092 26.1787 51.1368C24.9025 51.1966 23.62 51.1966 22.3439 51.139C21.4055 51.0963 20.7856 50.3723 20.8155 49.5182C20.8454 48.6576 21.4931 48.0298 22.4443 47.9892C23.0557 47.9615 23.6713 47.985 24.2826 47.9871L24.2848 47.985Z" fill="black"/>
        </g>
        <defs>
            <clipPath id="clip0_1210_2793">
                <rect width="72" height="82" fill="white"/>
            </clipPath>
        </defs>
    </g>
</svg>
